<svg xmlns="http://www.w3.org/2000/svg" width="1380" height="1040" viewBox="0 0 1380 1040"><title>Policy-calibrated 23-city GA comparison (tuned controls)</title><desc>{&quot;data&quot;: &quot;method-scenario-summary.csv&quot;, &quot;methods&quot;: [&quot;fixed&quot;, &quot;adaptive&quot;, &quot;catastrophe&quot;, &quot;combined&quot;, &quot;hybrid-seeded&quot;], &quot;tuning&quot;: &quot;../synthetic-23city-policy-tuning/results.json&quot;, &quot;classification&quot;: &quot;policy-calibrated synthetic&quot;}</desc><rect x="0" y="0" width="1380" height="1040" fill="white"/><text x="45" y="40" font-family="sans-serif" font-size="21" font-weight="bold">Policy-calibrated 23-city GA comparison (tuned controls)</text><circle cx="250.0" cy="73.0" r="5.5" fill="#4c78a8"/><text x="262" y="77" font-family="sans-serif" font-size="11">fixed</text><rect x="450.0" y="68.0" width="10" height="10" fill="#f58518"/><text x="467" y="77" font-family="sans-serif" font-size="11">adaptive</text><polygon points="660.0,67.0 666.0,73.0 660.0,79.0 654.0,73.0" fill="#54a24b"/><text x="672" y="77" font-family="sans-serif" font-size="11">catastrophe</text><polygon points="865.0,67.0 871.0,78.0 859.0,78.0" fill="#e45756"/><text x="877" y="77" font-family="sans-serif" font-size="11">combined</text><polygon points="1064.0,73.0 1067.0,67.8 1073.0,67.8 1076.0,73.0 1073.0,78.2 1067.0,78.2" fill="#9467bd"/><text x="1082" y="77" font-family="sans-serif" font-size="11">hybrid-seeded</text><text x="500" y="118" text-anchor="middle" font-family="sans-serif" font-size="13">Median cost (thousand CNY)</text><text x="1112" y="118" text-anchor="middle" font-family="sans-serif" font-size="13">Median tonne-weighted transit time (hours)</text><line x1="250.0" y1="132" x2="250.0" y2="900" stroke="#ddd"/><text x="250.0" y="144" text-anchor="middle" font-family="sans-serif" font-size="10">87.5</text><line x1="900.0" y1="132" x2="900.0" y2="900" stroke="#ddd"/><text x="900.0" y="144" text-anchor="middle" font-family="sans-serif" font-size="10">21.0</text><line x1="375.0" y1="132" x2="375.0" y2="900" stroke="#ddd"/><text x="375.0" y="144" text-anchor="middle" font-family="sans-serif" font-size="10">100.0</text><line x1="1006.2" y1="132" x2="1006.2" y2="900" stroke="#ddd"/><text x="1006.2" y="144" text-anchor="middle" font-family="sans-serif" font-size="10">26.2</text><line x1="500.0" y1="132" x2="500.0" y2="900" stroke="#ddd"/><text x="500.0" y="144" text-anchor="middle" font-family="sans-serif" font-size="10">112.5</text><line x1="1112.5" y1="132" x2="1112.5" y2="900" stroke="#ddd"/><text x="1112.5" y="144" text-anchor="middle" font-family="sans-serif" font-size="10">31.5</text><line x1="625.0" y1="132" x2="625.0" y2="900" stroke="#ddd"/><text x="625.0" y="144" text-anchor="middle" font-family="sans-serif" font-size="10">125.0</text><line x1="1218.8" y1="132" x2="1218.8" y2="900" stroke="#ddd"/><text x="1218.8" y="144" text-anchor="middle" font-family="sans-serif" font-size="10">36.8</text><line x1="750.0" y1="132" x2="750.0" y2="900" stroke="#ddd"/><text x="750.0" y="144" text-anchor="middle" font-family="sans-serif" font-size="10">137.5</text><line x1="1325.0" y1="132" x2="1325.0" y2="900" stroke="#ddd"/><text x="1325.0" y="144" text-anchor="middle" font-family="sans-serif" font-size="10">42.0</text><text x="20" y="170" font-family="sans-serif" font-size="12" font-weight="bold">Road-only, uncapped</text><text x="250" y="170" font-family="sans-serif" font-size="12">all methods overlap: CNY 101.4k | 14.16 h</text><text x="20" y="232" font-family="sans-serif" font-size="12" font-weight="bold">No transfer</text><text x="20" y="249" font-family="sans-serif" font-size="11">target 0%</text><line x1="250" y1="235" x2="750" y2="235" stroke="#bbb"/><line x1="900" y1="235" x2="1325" y2="235" stroke="#bbb"/><circle cx="284.3" cy="219.0" r="5.5" fill="#4c78a8"/><circle cx="912.3" cy="219.0" r="5.5" fill="#4c78a8"/><rect x="281.1" y="222.0" width="10" height="10" fill="#f58518"/><rect x="911.4" y="222.0" width="10" height="10" fill="#f58518"/><polygon points="284.3,229.0 290.3,235.0 284.3,241.0 278.3,235.0" fill="#54a24b"/><polygon points="912.3,229.0 918.3,235.0 912.3,241.0 906.3,235.0" fill="#54a24b"/><polygon points="282.6,237.0 288.6,248.0 276.6,248.0" fill="#e45756"/><polygon points="911.6,237.0 917.6,248.0 905.6,248.0" fill="#e45756"/><polygon points="266.4,251.0 269.4,245.8 275.4,245.8 278.4,251.0 275.4,256.2 269.4,256.2" fill="#9467bd"/><polygon points="902.7,251.0 905.7,245.8 911.7,245.8 914.7,251.0 911.7,256.2 905.7,256.2" fill="#9467bd"/><text x="281.4" y="255.0" font-family="sans-serif" font-size="10">89.7k</text><text x="917.7" y="255.0" font-family="sans-serif" font-size="10">21.43 h</text><text x="20" y="314" font-family="sans-serif" font-size="12" font-weight="bold">No transfer</text><text x="20" y="331" font-family="sans-serif" font-size="11">target 9.5%</text><line x1="250" y1="317" x2="750" y2="317" stroke="#bbb"/><line x1="900" y1="317" x2="1325" y2="317" stroke="#bbb"/><circle cx="328.6" cy="301.0" r="5.5" fill="#4c78a8"/><circle cx="977.6" cy="301.0" r="5.5" fill="#4c78a8"/><text x="337.6" y="305.0" font-family="sans-serif" font-size="10">95.4k</text><text x="986.6" y="305.0" font-family="sans-serif" font-size="10">24.83 h</text><rect x="324.3" y="304.0" width="10" height="10" fill="#f58518"/><rect x="972.2" y="304.0" width="10" height="10" fill="#f58518"/><polygon points="328.6,311.0 334.6,317.0 328.6,323.0 322.6,317.0" fill="#54a24b"/><polygon points="977.6,311.0 983.6,317.0 977.6,323.0 971.6,317.0" fill="#54a24b"/><polygon points="330.6,319.0 336.6,330.0 324.6,330.0" fill="#e45756"/><polygon points="980.7,319.0 986.7,330.0 974.7,330.0" fill="#e45756"/><polygon points="324.6,333.0 327.6,327.8 333.6,327.8 336.6,333.0 333.6,338.2 327.6,338.2" fill="#9467bd"/><polygon points="974.7,333.0 977.7,327.8 983.7,327.8 986.7,333.0 983.7,338.2 977.7,338.2" fill="#9467bd"/><text x="20" y="396" font-family="sans-serif" font-size="12" font-weight="bold">No transfer</text><text x="20" y="413" font-family="sans-serif" font-size="11">target 20%</text><line x1="250" y1="399" x2="750" y2="399" stroke="#bbb"/><line x1="900" y1="399" x2="1325" y2="399" stroke="#bbb"/><circle cx="462.0" cy="383.0" r="5.5" fill="#4c78a8"/><circle cx="1099.0" cy="383.0" r="5.5" fill="#4c78a8"/><rect x="449.0" y="386.0" width="10" height="10" fill="#f58518"/><rect x="1085.5" y="386.0" width="10" height="10" fill="#f58518"/><text x="463.0" y="395.0" font-family="sans-serif" font-size="10">107.9k</text><text x="1099.5" y="395.0" font-family="sans-serif" font-size="10">30.41 h</text><polygon points="459.4,393.0 465.4,399.0 459.4,405.0 453.4,399.0" fill="#54a24b"/><polygon points="1100.4,393.0 1106.4,399.0 1100.4,405.0 1094.4,399.0" fill="#54a24b"/><polygon points="466.3,401.0 472.3,412.0 460.3,412.0" fill="#e45756"/><polygon points="1103.0,401.0 1109.0,412.0 1097.0,412.0" fill="#e45756"/><polygon points="460.3,415.0 463.3,409.8 469.3,409.8 472.3,415.0 469.3,420.2 463.3,420.2" fill="#9467bd"/><polygon points="1097.0,415.0 1100.0,409.8 1106.0,409.8 1109.0,415.0 1106.0,420.2 1100.0,420.2" fill="#9467bd"/><text x="20" y="478" font-family="sans-serif" font-size="12" font-weight="bold">No transfer</text><text x="20" y="495" font-family="sans-serif" font-size="11">target 30%</text><line x1="250" y1="481" x2="750" y2="481" stroke="#bbb"/><line x1="900" y1="481" x2="1325" y2="481" stroke="#bbb"/><text x="250" y="485" font-family="sans-serif" font-size="11">no feasible run</text><text x="900" y="485" font-family="sans-serif" font-size="11">no feasible run</text><text x="20" y="560" font-family="sans-serif" font-size="12" font-weight="bold">Multimodal</text><text x="20" y="577" font-family="sans-serif" font-size="11">target 0%</text><line x1="250" y1="563" x2="750" y2="563" stroke="#bbb"/><line x1="900" y1="563" x2="1325" y2="563" stroke="#bbb"/><circle cx="277.3" cy="547.0" r="5.5" fill="#4c78a8"/><circle cx="952.2" cy="547.0" r="5.5" fill="#4c78a8"/><rect x="270.0" y="550.0" width="10" height="10" fill="#f58518"/><rect x="938.8" y="550.0" width="10" height="10" fill="#f58518"/><polygon points="277.3,557.0 283.3,563.0 277.3,569.0 271.3,563.0" fill="#54a24b"/><polygon points="952.2,557.0 958.2,563.0 952.2,569.0 946.2,563.0" fill="#54a24b"/><polygon points="273.8,565.0 279.8,576.0 267.8,576.0" fill="#e45756"/><polygon points="949.5,565.0 955.5,576.0 943.5,576.0" fill="#e45756"/><polygon points="249.9,579.0 252.9,573.8 258.9,573.8 261.9,579.0 258.9,584.2 252.9,584.2" fill="#9467bd"/><polygon points="934.9,579.0 937.9,573.8 943.9,573.8 946.9,579.0 943.9,584.2 937.9,584.2" fill="#9467bd"/><text x="264.9" y="583.0" font-family="sans-serif" font-size="10">88.1k</text><text x="949.9" y="583.0" font-family="sans-serif" font-size="10">23.02 h</text><text x="20" y="642" font-family="sans-serif" font-size="12" font-weight="bold">Multimodal</text><text x="20" y="659" font-family="sans-serif" font-size="11">target 9.5%</text><line x1="250" y1="645" x2="750" y2="645" stroke="#bbb"/><line x1="900" y1="645" x2="1325" y2="645" stroke="#bbb"/><circle cx="310.5" cy="629.0" r="5.5" fill="#4c78a8"/><circle cx="1001.0" cy="629.0" r="5.5" fill="#4c78a8"/><rect x="302.5" y="632.0" width="10" height="10" fill="#f58518"/><rect x="994.0" y="632.0" width="10" height="10" fill="#f58518"/><polygon points="310.5,639.0 316.5,645.0 310.5,651.0 304.5,645.0" fill="#54a24b"/><polygon points="1001.0,639.0 1007.0,645.0 1001.0,651.0 995.0,645.0" fill="#54a24b"/><polygon points="306.5,647.0 312.5,658.0 300.5,658.0" fill="#e45756"/><polygon points="997.2,647.0 1003.2,658.0 991.2,658.0" fill="#e45756"/><text x="315.5" y="657.0" font-family="sans-serif" font-size="10">93.2k</text><text x="1006.2" y="657.0" font-family="sans-serif" font-size="10">25.80 h</text><polygon points="300.5,661.0 303.5,655.8 309.5,655.8 312.5,661.0 309.5,666.2 303.5,666.2" fill="#9467bd"/><polygon points="991.2,661.0 994.2,655.8 1000.2,655.8 1003.2,661.0 1000.2,666.2 994.2,666.2" fill="#9467bd"/><text x="20" y="724" font-family="sans-serif" font-size="12" font-weight="bold">Multimodal</text><text x="20" y="741" font-family="sans-serif" font-size="11">target 20%</text><line x1="250" y1="727" x2="750" y2="727" stroke="#bbb"/><line x1="900" y1="727" x2="1325" y2="727" stroke="#bbb"/><circle cx="398.0" cy="711.0" r="5.5" fill="#4c78a8"/><circle cx="1092.2" cy="711.0" r="5.5" fill="#4c78a8"/><text x="407.0" y="715.0" font-family="sans-serif" font-size="10">102.3k</text><text x="1101.2" y="715.0" font-family="sans-serif" font-size="10">30.50 h</text><rect x="399.6" y="714.0" width="10" height="10" fill="#f58518"/><rect x="1096.1" y="714.0" width="10" height="10" fill="#f58518"/><polygon points="400.0,721.0 406.0,727.0 400.0,733.0 394.0,727.0" fill="#54a24b"/><polygon points="1093.0,721.0 1099.0,727.0 1093.0,733.0 1087.0,727.0" fill="#54a24b"/><polygon points="411.6,729.0 417.6,740.0 405.6,740.0" fill="#e45756"/><polygon points="1104.7,729.0 1110.7,740.0 1098.7,740.0" fill="#e45756"/><polygon points="405.6,743.0 408.6,737.8 414.6,737.8 417.6,743.0 414.6,748.2 408.6,748.2" fill="#9467bd"/><polygon points="1098.7,743.0 1101.7,737.8 1107.7,737.8 1110.7,743.0 1107.7,748.2 1101.7,748.2" fill="#9467bd"/><text x="20" y="806" font-family="sans-serif" font-size="12" font-weight="bold">Multimodal</text><text x="20" y="823" font-family="sans-serif" font-size="11">target 30%</text><line x1="250" y1="809" x2="750" y2="809" stroke="#bbb"/><line x1="900" y1="809" x2="1325" y2="809" stroke="#bbb"/><circle cx="743.2" cy="793.0" r="5.5" fill="#4c78a8"/><circle cx="1309.3" cy="793.0" r="5.5" fill="#4c78a8"/><rect x="737.5" y="796.0" width="10" height="10" fill="#f58518"/><rect x="1302.3" y="796.0" width="10" height="10" fill="#f58518"/><text x="751.5" y="805.0" font-family="sans-serif" font-size="10">136.8k</text><text x="1316.3" y="805.0" font-family="sans-serif" font-size="10">41.13 h</text><polygon points="743.2,803.0 749.2,809.0 743.2,815.0 737.2,809.0" fill="#54a24b"/><polygon points="1310.9,803.0 1316.9,809.0 1310.9,815.0 1304.9,809.0" fill="#54a24b"/><polygon points="743.2,811.0 749.2,822.0 737.2,822.0" fill="#e45756"/><polygon points="1307.8,811.0 1313.8,822.0 1301.8,822.0" fill="#e45756"/><polygon points="737.2,825.0 740.2,819.8 746.2,819.8 749.2,825.0 746.2,830.2 740.2,830.2" fill="#9467bd"/><polygon points="1301.8,825.0 1304.8,819.8 1310.8,819.8 1313.8,825.0 1310.8,830.2 1304.8,830.2" fill="#9467bd"/><line x1="20" y1="925" x2="1325" y2="925" stroke="#bbb"/><text x="20" y="952" font-family="sans-serif" font-size="12" font-weight="bold">Positive-target feasibility</text><text x="250" y="952" font-family="sans-serif" font-size="12">9.5%: 300/300 | 20%: 300/300 | 30%: 150/300 feasible nonroad runs</text><text x="250" y="987" font-family="sans-serif" font-size="10">Road-only positive targets are omitted from the panels when infeasible; all caps use the common per-order minimum-cost single-trunk reference.</text></svg>
