<svg xmlns="http://www.w3.org/2000/svg" width="1080" height="650" viewBox="0 0 1080 650"><title>Shared departure capacity in best allocation</title><desc>{&quot;data&quot;: &quot;best-capacity.csv&quot;}</desc><rect width="100%" height="100%" fill="white"/><text x="45" y="40" font-family="sans-serif" font-size="21" font-weight="bold">Shared departure capacity in best allocation</text><text x="245" y="106" text-anchor="end" font-family="sans-serif" font-size="11">RAIL-000</text><rect x="260" y="86" width="650" height="28" fill="#eeeeee"/><rect x="260" y="86" width="650.0" height="28" fill="#4c78a8"/><text x="925" y="106" font-family="sans-serif" font-size="11">2/2 units; 38/45 t</text><text x="245" y="164" text-anchor="end" font-family="sans-serif" font-size="11">RAIL-084</text><rect x="260" y="144" width="650" height="28" fill="#eeeeee"/><rect x="260" y="144" width="650.0" height="28" fill="#4c78a8"/><text x="925" y="164" font-family="sans-serif" font-size="11">3/3 units; 58/60 t</text><text x="245" y="222" text-anchor="end" font-family="sans-serif" font-size="11">RAIL-168</text><rect x="260" y="202" width="650" height="28" fill="#eeeeee"/><rect x="260" y="202" width="433.3" height="28" fill="#4c78a8"/><text x="925" y="222" font-family="sans-serif" font-size="11">2/3 units; 42/60 t</text><text x="245" y="280" text-anchor="end" font-family="sans-serif" font-size="11">WATER-X-000</text><rect x="260" y="260" width="650" height="28" fill="#eeeeee"/><rect x="260" y="260" width="650.0" height="28" fill="#4c78a8"/><text x="925" y="280" font-family="sans-serif" font-size="11">1/1 units; 18/30 t</text><text x="245" y="338" text-anchor="end" font-family="sans-serif" font-size="11">WATER-X-168</text><rect x="260" y="318" width="650" height="28" fill="#eeeeee"/><rect x="260" y="318" width="0.0" height="28" fill="#4c78a8"/><text x="925" y="338" font-family="sans-serif" font-size="11">0/2 units; 0/50 t</text><text x="245" y="396" text-anchor="end" font-family="sans-serif" font-size="11">WATER-R-000</text><rect x="260" y="376" width="650" height="28" fill="#eeeeee"/><rect x="260" y="376" width="650.0" height="28" fill="#4c78a8"/><text x="925" y="396" font-family="sans-serif" font-size="11">1/1 units; 20/25 t</text><text x="245" y="454" text-anchor="end" font-family="sans-serif" font-size="11">WATER-R-084</text><rect x="260" y="434" width="650" height="28" fill="#eeeeee"/><rect x="260" y="434" width="325.0" height="28" fill="#4c78a8"/><text x="925" y="454" font-family="sans-serif" font-size="11">1/2 units; 22/45 t</text><text x="245" y="512" text-anchor="end" font-family="sans-serif" font-size="11">WATER-R-168</text><rect x="260" y="492" width="650" height="28" fill="#eeeeee"/><rect x="260" y="492" width="0.0" height="28" fill="#4c78a8"/><text x="925" y="512" font-family="sans-serif" font-size="11">0/2 units; 0/45 t</text></svg>
