<svg xmlns="http://www.w3.org/2000/svg" width="1080" height="650" viewBox="0 0 1080 650"><title>Cost of corridor emissions targets</title><desc>{&quot;data&quot;: &quot;screening-grid.csv&quot;, &quot;price&quot;: 97.49, &quot;deadline_profile&quot;: &quot;balanced&quot;}</desc><rect width="100%" height="100%" fill="white"/><text x="45" y="40" font-family="sans-serif" font-size="21" font-weight="bold">Cost of corridor emissions targets</text><rect x="105" y="78" width="850" height="440" fill="none" stroke="#333"/><circle cx="105.0" cy="518.0" r="6" fill="#4c78a8"/><circle cx="374.2" cy="302.2" r="6" fill="#4c78a8"/><circle cx="671.7" cy="194.5" r="6" fill="#4c78a8"/><circle cx="955.0" cy="78.0" r="6" fill="#4c78a8"/><polyline points="105.0,518.0 374.2,302.2 671.7,194.5 955.0,78.0" fill="none" stroke="#4c78a8" stroke-width="3"/><circle cx="105.0" cy="518.0" r="6" fill="#f58518"/><circle cx="374.2" cy="422.2" r="6" fill="#f58518"/><circle cx="671.7" cy="275.2" r="6" fill="#f58518"/><circle cx="955.0" cy="215.8" r="6" fill="#f58518"/><polyline points="105.0,518.0 374.2,422.2 671.7,275.2 955.0,215.8" fill="none" stroke="#f58518" stroke-width="3"/><circle cx="105.0" cy="518.0" r="6" fill="#54a24b"/><polyline points="105.0,518.0" fill="none" stroke="#54a24b" stroke-width="3"/><text x="105.0" y="542" text-anchor="middle" font-family="sans-serif" font-size="11">0</text><text x="374.2" y="542" text-anchor="middle" font-family="sans-serif" font-size="11">9.5</text><text x="671.7" y="542" text-anchor="middle" font-family="sans-serif" font-size="11">20</text><text x="955.0" y="542" text-anchor="middle" font-family="sans-serif" font-size="11">30</text><text x="95" y="522.0" text-anchor="end" font-family="sans-serif" font-size="10">0.0</text><text x="95" y="412.0" text-anchor="end" font-family="sans-serif" font-size="10">4.4</text><text x="95" y="302.0" text-anchor="end" font-family="sans-serif" font-size="10">8.7</text><text x="95" y="192.0" text-anchor="end" font-family="sans-serif" font-size="10">13.1</text><text x="95" y="82.0" text-anchor="end" font-family="sans-serif" font-size="10">17.5</text><line x1="330" y1="570" x2="354" y2="570" stroke="#4c78a8" stroke-width="3"/><text x="361" y="574" font-family="sans-serif" font-size="11">low demand</text><line x1="500" y1="570" x2="524" y2="570" stroke="#f58518" stroke-width="3"/><text x="531" y="574" font-family="sans-serif" font-size="11">central demand</text><line x1="670" y1="570" x2="694" y2="570" stroke="#54a24b" stroke-width="3"/><text x="701" y="574" font-family="sans-serif" font-size="11">high demand</text><text x="530" y="550" text-anchor="middle" font-family="sans-serif" font-size="13">Hard emissions-reduction target relative to the scenario baseline (%)</text><text x="30" y="300" transform="rotate(-90 30 300)" text-anchor="middle" font-family="sans-serif" font-size="13">Non-carbon operating-cost premium (%)</text></svg>
