<svg xmlns="http://www.w3.org/2000/svg" width="1280" height="650" viewBox="0 0 1280 650"><title>Global allocation objective by method</title><desc>{&quot;data&quot;: &quot;method-summary.csv&quot;, &quot;marks&quot;: &quot;best, median, interquartile range&quot;}</desc><rect width="100%" height="100%" fill="white"/><text x="45" y="40" font-family="sans-serif" font-size="21" font-weight="bold">Global allocation objective by method</text><line x1="105" y1="530" x2="1155" y2="530" stroke="#333"/><line x1="105" y1="90" x2="105" y2="530" stroke="#333"/><line x1="192.5" y1="90.0" x2="192.5" y2="90.0" stroke="#777777" stroke-width="3"/><rect x="158.5" y="90.0" width="68" height="2.0" fill="#777777" opacity="0.45"/><line x1="158.5" y1="90.0" x2="226.5" y2="90.0" stroke="#111" stroke-width="3"/><circle cx="192.5" cy="90.0" r="5" fill="#777777"/><text x="192.5" y="554" text-anchor="middle" font-family="sans-serif" font-size="11">greedy</text><text x="192.5" y="572" text-anchor="middle" font-family="sans-serif" font-size="10">1/1 feasible</text><line x1="367.5" y1="508.2" x2="367.5" y2="382.7" stroke="#4c78a8" stroke-width="3"/><rect x="333.5" y="382.7" width="68" height="56.6" fill="#4c78a8" opacity="0.45"/><line x1="333.5" y1="409.4" x2="401.5" y2="409.4" stroke="#111" stroke-width="3"/><circle cx="367.5" cy="508.2" r="5" fill="#4c78a8"/><text x="367.5" y="554" text-anchor="middle" font-family="sans-serif" font-size="11">fixed</text><text x="367.5" y="572" text-anchor="middle" font-family="sans-serif" font-size="10">30/30 feasible</text><line x1="542.5" y1="529.4" x2="542.5" y2="418.4" stroke="#f58518" stroke-width="3"/><rect x="508.5" y="418.4" width="68" height="78.6" fill="#f58518" opacity="0.45"/><line x1="508.5" y1="447.9" x2="576.5" y2="447.9" stroke="#111" stroke-width="3"/><circle cx="542.5" cy="529.4" r="5" fill="#f58518"/><text x="542.5" y="554" text-anchor="middle" font-family="sans-serif" font-size="11">adaptive</text><text x="542.5" y="572" text-anchor="middle" font-family="sans-serif" font-size="10">30/30 feasible</text><line x1="717.5" y1="508.2" x2="717.5" y2="382.7" stroke="#54a24b" stroke-width="3"/><rect x="683.5" y="382.7" width="68" height="55.1" fill="#54a24b" opacity="0.45"/><line x1="683.5" y1="408.3" x2="751.5" y2="408.3" stroke="#111" stroke-width="3"/><circle cx="717.5" cy="508.2" r="5" fill="#54a24b"/><text x="717.5" y="554" text-anchor="middle" font-family="sans-serif" font-size="11">catastrophe</text><text x="717.5" y="572" text-anchor="middle" font-family="sans-serif" font-size="10">30/30 feasible</text><line x1="892.5" y1="529.4" x2="892.5" y2="418.4" stroke="#e45756" stroke-width="3"/><rect x="858.5" y="418.4" width="68" height="80.0" fill="#e45756" opacity="0.45"/><line x1="858.5" y1="447.9" x2="926.5" y2="447.9" stroke="#111" stroke-width="3"/><circle cx="892.5" cy="529.4" r="5" fill="#e45756"/><text x="892.5" y="554" text-anchor="middle" font-family="sans-serif" font-size="11">combined</text><text x="892.5" y="572" text-anchor="middle" font-family="sans-serif" font-size="10">30/30 feasible</text><line x1="1067.5" y1="530.0" x2="1067.5" y2="452.5" stroke="#9467bd" stroke-width="3"/><rect x="1033.5" y="452.5" width="68" height="43.7" fill="#9467bd" opacity="0.45"/><line x1="1033.5" y1="452.5" x2="1101.5" y2="452.5" stroke="#111" stroke-width="3"/><circle cx="1067.5" cy="530.0" r="5" fill="#9467bd"/><text x="1067.5" y="554" text-anchor="middle" font-family="sans-serif" font-size="11">hybrid-seeded</text><text x="1067.5" y="572" text-anchor="middle" font-family="sans-serif" font-size="10">30/30 feasible</text><text x="95" y="534.0" text-anchor="end" font-family="sans-serif" font-size="10">324492</text><text x="95" y="424.0" text-anchor="end" font-family="sans-serif" font-size="10">342925</text><text x="95" y="314.0" text-anchor="end" font-family="sans-serif" font-size="10">361358</text><text x="95" y="204.0" text-anchor="end" font-family="sans-serif" font-size="10">379791</text><text x="95" y="94.0" text-anchor="end" font-family="sans-serif" font-size="10">398224</text><text x="32" y="310" transform="rotate(-90 32 310)" text-anchor="middle" font-family="sans-serif" font-size="13">Feasible portfolio cost (CNY)</text></svg>
